<svg width="100.000000" height="20.000000" viewBox="0 0 100 20" fill="none" xmlns="http://www.w3.org/2000/svg" xmlns:xlink="http://www.w3.org/1999/xlink">
	<desc>
			Created with Pixso.
	</desc>
	<defs>
		<clipPath id="clip2_4312">
			<rect id="star-half-filled" rx="-0.500000" width="19.000000" height="19.000000" transform="translate(80.500000 0.500000)" fill="white" fill-opacity="0"/>
		</clipPath>
	</defs>
	<path id="Vector" d="M15.82 7.65L13.39 7.65C12.78 7.65 12.24 7.25 12.06 6.66L11.33 4.32C10.93 3.01 9.06 3.01 8.66 4.32L7.93 6.66C7.75 7.25 7.21 7.65 6.6 7.65L4.12 7.65C2.79 7.65 2.21 9.35 3.27 10.16L5.39 11.78C5.85 12.14 6.05 12.75 5.88 13.3L5.11 15.82C4.71 17.12 6.22 18.17 7.3 17.34L9.14 15.92C9.65 15.54 10.34 15.54 10.85 15.92L12.68 17.32C13.76 18.15 15.27 17.1 14.86 15.8L14.08 13.28C13.91 12.71 14.11 12.1 14.58 11.75L16.67 10.17C17.74 9.36 17.17 7.65 15.82 7.65Z" fill="#FFAD33" fill-opacity="1.000000" fill-rule="nonzero"/>
	<path id="Vector" d="M35.82 7.65L33.39 7.65C32.78 7.65 32.24 7.25 32.06 6.66L31.33 4.32C30.93 3.01 29.06 3.01 28.66 4.32L27.93 6.66C27.75 7.25 27.21 7.65 26.6 7.65L24.12 7.65C22.79 7.65 22.21 9.35 23.27 10.16L25.39 11.78C25.85 12.14 26.05 12.75 25.88 13.3L25.11 15.82C24.71 17.12 26.22 18.17 27.3 17.34L29.14 15.92C29.65 15.54 30.34 15.54 30.85 15.92L32.68 17.32C33.76 18.15 35.27 17.1 34.86 15.8L34.08 13.28C33.91 12.71 34.11 12.1 34.58 11.75L36.67 10.17C37.74 9.36 37.17 7.65 35.82 7.65Z" fill="#FFAD33" fill-opacity="1.000000" fill-rule="nonzero"/>
	<path id="Vector" d="M55.82 7.65L53.39 7.65C52.78 7.65 52.24 7.25 52.06 6.66L51.33 4.32C50.93 3.01 49.06 3.01 48.66 4.32L47.93 6.66C47.75 7.25 47.21 7.65 46.6 7.65L44.12 7.65C42.79 7.65 42.21 9.35 43.27 10.16L45.39 11.78C45.85 12.14 46.05 12.75 45.88 13.3L45.11 15.82C44.71 17.12 46.22 18.17 47.3 17.34L49.14 15.92C49.65 15.54 50.34 15.54 50.85 15.92L52.68 17.32C53.76 18.15 55.27 17.1 54.86 15.8L54.08 13.28C53.91 12.71 54.11 12.1 54.58 11.75L56.67 10.17C57.74 9.36 57.17 7.65 55.82 7.65Z" fill="#FFAD33" fill-opacity="1.000000" fill-rule="nonzero"/>
	<path id="Vector" d="M75.82 7.65L73.39 7.65C72.78 7.65 72.24 7.25 72.06 6.66L71.33 4.32C70.93 3.01 69.06 3.01 68.66 4.32L67.93 6.66C67.75 7.25 67.21 7.65 66.6 7.65L64.12 7.65C62.79 7.65 62.21 9.35 63.27 10.16L65.39 11.78C65.85 12.14 66.05 12.75 65.88 13.3L65.11 15.82C64.71 17.12 66.22 18.17 67.3 17.34L69.14 15.92C69.65 15.54 70.34 15.54 70.85 15.92L72.68 17.32C73.76 18.15 75.27 17.1 74.86 15.8L74.08 13.28C73.91 12.71 74.11 12.1 74.58 11.75L76.67 10.17C77.74 9.36 77.17 7.65 75.82 7.65Z" fill="#FFAD33" fill-opacity="1.000000" fill-rule="nonzero"/>
	<rect id="star-half-filled" rx="-0.500000" width="19.000000" height="19.000000" transform="translate(80.500000 0.500000)" fill="#FFFFFF" fill-opacity="0"/>
	<g clip-path="url(#clip2_4312)">
		<path id="Vector" d="M89.99 1.83C89.75 1.83 89.5 1.9 89.29 2.03C89.08 2.16 88.91 2.35 88.8 2.57L86.95 6.32L82.8 6.93C82.56 6.96 82.33 7.07 82.14 7.23C81.95 7.39 81.8 7.6 81.73 7.83C81.65 8.07 81.64 8.32 81.7 8.57C81.76 8.81 81.89 9.03 82.06 9.2L85.06 12.12L84.36 16.25C84.31 16.5 84.34 16.75 84.43 16.98C84.53 17.21 84.68 17.41 84.89 17.55C85.09 17.7 85.33 17.79 85.57 17.81C85.82 17.82 86.07 17.77 86.29 17.66L89.99 15.71L89.99 1.83Z" fill="#FFAD33" fill-opacity="1.000000" fill-rule="nonzero"/>
		<g opacity="0.250000">
			<path id="Vector" d="M90 1.83C90.24 1.83 90.5 2 90.5 2C90.5 2 91.08 2.2 91.19 2.44L93.04 6.35L97.19 6.98C97.43 7.02 97.66 7.12 97.85 7.29C98.04 7.46 98.19 7.68 98.26 7.92C98.34 8.17 98.35 8.44 98.29 8.69C98.23 8.94 98.1 9.17 97.93 9.35L94.93 12.4L95.63 16.7C95.68 16.96 95.65 17.22 95.56 17.46C95.46 17.7 95.31 17.91 95.1 18.06C94.9 18.21 94.66 18.31 94.42 18.32C94.17 18.34 93.92 18.29 93.7 18.17L90 16.14L90 1.83Z" fill="#000000" fill-opacity="1.000000" fill-rule="nonzero"/>
		</g>
	</g>
</svg>
